<svg id="visual" viewBox="0 0 1880 763" width="1880" height="763" xmlns="http://www.w3.org/2000/svg" xmlns:xlink="http://www.w3.org/1999/xlink" version="1.1"><path d="M0 653L26.2 651C52.3 649 104.7 645 156.8 648.5C209 652 261 663 313.2 668.7C365.3 674.3 417.7 674.7 470 668.5C522.3 662.3 574.7 649.7 626.8 645.5C679 641.3 731 645.7 783.2 649.3C835.3 653 887.7 656 940 659C992.3 662 1044.7 665 1096.8 661.7C1149 658.3 1201 648.7 1253.2 647.7C1305.3 646.7 1357.7 654.3 1410 658.7C1462.3 663 1514.7 664 1566.8 660.3C1619 656.7 1671 648.3 1723.2 649.3C1775.3 650.3 1827.7 660.7 1853.8 665.8L1880 671L1880 764L1853.8 764C1827.7 764 1775.3 764 1723.2 764C1671 764 1619 764 1566.8 764C1514.7 764 1462.3 764 1410 764C1357.7 764 1305.3 764 1253.2 764C1201 764 1149 764 1096.8 764C1044.7 764 992.3 764 940 764C887.7 764 835.3 764 783.2 764C731 764 679 764 626.8 764C574.7 764 522.3 764 470 764C417.7 764 365.3 764 313.2 764C261 764 209 764 156.8 764C104.7 764 52.3 764 26.2 764L0 764Z" fill="#005dff"></path><path d="M0 686L26.2 689.5C52.3 693 104.7 700 156.8 699.2C209 698.3 261 689.7 313.2 685.7C365.3 681.7 417.7 682.3 470 686.3C522.3 690.3 574.7 697.7 626.8 696C679 694.3 731 683.7 783.2 678.7C835.3 673.7 887.7 674.3 940 674.2C992.3 674 1044.7 673 1096.8 675C1149 677 1201 682 1253.2 686.2C1305.3 690.3 1357.7 693.7 1410 690.8C1462.3 688 1514.7 679 1566.8 679.7C1619 680.3 1671 690.7 1723.2 696.2C1775.3 701.7 1827.7 702.3 1853.8 702.7L1880 703L1880 764L1853.8 764C1827.7 764 1775.3 764 1723.2 764C1671 764 1619 764 1566.8 764C1514.7 764 1462.3 764 1410 764C1357.7 764 1305.3 764 1253.2 764C1201 764 1149 764 1096.8 764C1044.7 764 992.3 764 940 764C887.7 764 835.3 764 783.2 764C731 764 679 764 626.8 764C574.7 764 522.3 764 470 764C417.7 764 365.3 764 313.2 764C261 764 209 764 156.8 764C104.7 764 52.3 764 26.2 764L0 764Z" fill="#2f95f6"></path><path d="M0 728L26.2 730C52.3 732 104.7 736 156.8 737.8C209 739.7 261 739.3 313.2 736C365.3 732.7 417.7 726.3 470 724.2C522.3 722 574.7 724 626.8 725.8C679 727.7 731 729.3 783.2 731.2C835.3 733 887.7 735 940 735.7C992.3 736.3 1044.7 735.7 1096.8 731.2C1149 726.7 1201 718.3 1253.2 719C1305.3 719.7 1357.7 729.3 1410 733.2C1462.3 737 1514.7 735 1566.8 735.2C1619 735.3 1671 737.7 1723.2 735C1775.3 732.3 1827.7 724.7 1853.8 720.8L1880 717L1880 764L1853.8 764C1827.7 764 1775.3 764 1723.2 764C1671 764 1619 764 1566.8 764C1514.7 764 1462.3 764 1410 764C1357.7 764 1305.3 764 1253.2 764C1201 764 1149 764 1096.8 764C1044.7 764 992.3 764 940 764C887.7 764 835.3 764 783.2 764C731 764 679 764 626.8 764C574.7 764 522.3 764 470 764C417.7 764 365.3 764 313.2 764C261 764 209 764 156.8 764C104.7 764 52.3 764 26.2 764L0 764Z" fill="#9bbedb"></path></svg>