<svg id="visual" viewBox="0 0 2000 744" width="2000" height="744" xmlns="http://www.w3.org/2000/svg" xmlns:xlink="http://www.w3.org/1999/xlink" version="1.1"><rect x="0" y="0" width="2000" height="744" fill="#1f2937"></rect><path d="M0 487L47.7 488.8C95.3 490.7 190.7 494.3 285.8 512.8C381 531.3 476 564.7 571.2 585.8C666.3 607 761.7 616 857 608C952.3 600 1047.7 575 1143 559.2C1238.3 543.3 1333.7 536.7 1428.8 524.2C1524 511.7 1619 493.3 1714.2 496.2C1809.3 499 1904.7 523 1952.3 535L2000 547L2000 745L1952.3 745C1904.7 745 1809.3 745 1714.2 745C1619 745 1524 745 1428.8 745C1333.7 745 1238.3 745 1143 745C1047.7 745 952.3 745 857 745C761.7 745 666.3 745 571.2 745C476 745 381 745 285.8 745C190.7 745 95.3 745 47.7 745L0 745Z" fill="#FFFFFF" stroke-linecap="round" stroke-linejoin="miter"></path></svg>