<svg id="visual" viewBox="0 0 1800 744" width="1800" height="744" xmlns="http://www.w3.org/2000/svg" xmlns:xlink="http://www.w3.org/1999/xlink" version="1.1"><rect x="0" y="0" width="1800" height="744" fill="#FFFFFF"></rect><path d="M0 589L42.8 590.2C85.7 591.3 171.3 593.7 257 598.7C342.7 603.7 428.3 611.3 514 616.3C599.7 621.3 685.3 623.7 771.2 615.3C857 607 943 588 1028.8 588.8C1114.7 589.7 1200.3 610.3 1286 612C1371.7 613.7 1457.3 596.3 1543 591.2C1628.7 586 1714.3 593 1757.2 596.5L1800 600L1800 745L1757.2 745C1714.3 745 1628.7 745 1543 745C1457.3 745 1371.7 745 1286 745C1200.3 745 1114.7 745 1028.8 745C943 745 857 745 771.2 745C685.3 745 599.7 745 514 745C428.3 745 342.7 745 257 745C171.3 745 85.7 745 42.8 745L0 745Z" fill="#4facf7"></path><path d="M0 640L42.8 646.5C85.7 653 171.3 666 257 671C342.7 676 428.3 673 514 667.3C599.7 661.7 685.3 653.3 771.2 644.8C857 636.3 943 627.7 1028.8 623.3C1114.7 619 1200.3 619 1286 623.7C1371.7 628.3 1457.3 637.7 1543 647C1628.7 656.3 1714.3 665.7 1757.2 670.3L1800 675L1800 745L1757.2 745C1714.3 745 1628.7 745 1543 745C1457.3 745 1371.7 745 1286 745C1200.3 745 1114.7 745 1028.8 745C943 745 857 745 771.2 745C685.3 745 599.7 745 514 745C428.3 745 342.7 745 257 745C171.3 745 85.7 745 42.8 745L0 745Z" fill="#0b7be5"></path><path d="M0 680L42.8 681.3C85.7 682.7 171.3 685.3 257 687.8C342.7 690.3 428.3 692.7 514 695.7C599.7 698.7 685.3 702.3 771.2 699.2C857 696 943 686 1028.8 678.7C1114.7 671.3 1200.3 666.7 1286 666.7C1371.7 666.7 1457.3 671.3 1543 675.5C1628.7 679.7 1714.3 683.3 1757.2 685.2L1800 687L1800 745L1757.2 745C1714.3 745 1628.7 745 1543 745C1457.3 745 1371.7 745 1286 745C1200.3 745 1114.7 745 1028.8 745C943 745 857 745 771.2 745C685.3 745 599.7 745 514 745C428.3 745 342.7 745 257 745C171.3 745 85.7 745 42.8 745L0 745Z" fill="#2446c7"></path></svg>