<svg id="visual" viewBox="0 0 1800 744" width="1800" height="744" xmlns="http://www.w3.org/2000/svg" xmlns:xlink="http://www.w3.org/1999/xlink" version="1.1"><path d="M0 75L360 90L720 83L1080 53L1440 90L1800 105L1800 0L1440 0L1080 0L720 0L360 0L0 0Z" fill="#ffffff"></path><path d="M0 157L360 127L720 135L1080 127L1440 187L1800 180L1800 103L1440 88L1080 51L720 81L360 88L0 73Z" fill="#e2eefe"></path><path d="M0 455L360 217L720 261L1080 291L1440 403L1800 321L1800 178L1440 185L1080 125L720 133L360 125L0 155Z" fill="#c4dcfd"></path><path d="M0 529L360 358L720 425L1080 492L1440 462L1800 447L1800 319L1440 401L1080 289L720 259L360 215L0 453Z" fill="#a4ccfb"></path><path d="M0 648L360 708L720 700L1080 693L1440 678L1800 685L1800 445L1440 460L1080 490L720 423L360 356L0 527Z" fill="#7fbcf9"></path><path d="M0 745L360 745L720 745L1080 745L1440 745L1800 745L1800 683L1440 676L1080 691L720 698L360 706L0 646Z" fill="#4facf7"></path></svg>