<svg id="visual" viewBox="0 0 1800 744" width="1800" height="744" xmlns="http://www.w3.org/2000/svg" xmlns:xlink="http://www.w3.org/1999/xlink" version="1.1"><rect x="0" y="0" width="1800" height="744" fill="#FFFFFF"></rect><path d="M0 486L42.8 488.2C85.7 490.3 171.3 494.7 257 503C342.7 511.3 428.3 523.7 514 531.7C599.7 539.7 685.3 543.3 771.2 529.5C857 515.7 943 484.3 1028.8 486C1114.7 487.7 1200.3 522.3 1286 525.2C1371.7 528 1457.3 499 1543 490.3C1628.7 481.7 1714.3 493.3 1757.2 499.2L1800 505L1800 745L1757.2 745C1714.3 745 1628.7 745 1543 745C1457.3 745 1371.7 745 1286 745C1200.3 745 1114.7 745 1028.8 745C943 745 857 745 771.2 745C685.3 745 599.7 745 514 745C428.3 745 342.7 745 257 745C171.3 745 85.7 745 42.8 745L0 745Z" fill="#4facf7"></path><path d="M0 571L42.8 582C85.7 593 171.3 615 257 623.3C342.7 631.7 428.3 626.3 514 616.8C599.7 607.3 685.3 593.7 771.2 579.5C857 565.3 943 550.7 1028.8 543.5C1114.7 536.3 1200.3 536.7 1286 544.3C1371.7 552 1457.3 567 1543 582.5C1628.7 598 1714.3 614 1757.2 622L1800 630L1800 745L1757.2 745C1714.3 745 1628.7 745 1543 745C1457.3 745 1371.7 745 1286 745C1200.3 745 1114.7 745 1028.8 745C943 745 857 745 771.2 745C685.3 745 599.7 745 514 745C428.3 745 342.7 745 257 745C171.3 745 85.7 745 42.8 745L0 745Z" fill="#0b7be5"></path><path d="M0 638L42.8 640.2C85.7 642.3 171.3 646.7 257 650.8C342.7 655 428.3 659 514 664C599.7 669 685.3 675 771.2 669.7C857 664.3 943 647.7 1028.8 635.7C1114.7 623.7 1200.3 616.3 1286 616.3C1371.7 616.3 1457.3 623.7 1543 630.3C1628.7 637 1714.3 643 1757.2 646L1800 649L1800 745L1757.2 745C1714.3 745 1628.7 745 1543 745C1457.3 745 1371.7 745 1286 745C1200.3 745 1114.7 745 1028.8 745C943 745 857 745 771.2 745C685.3 745 599.7 745 514 745C428.3 745 342.7 745 257 745C171.3 745 85.7 745 42.8 745L0 745Z" fill="#2446c7"></path></svg>