<svg id="visual" viewBox="0 0 900 600" width="900" height="600" xmlns="http://www.w3.org/2000/svg" xmlns:xlink="http://www.w3.org/1999/xlink" version="1.1"><rect x="0" y="0" width="900" height="600" fill="#FFFFFF"></rect><g transform="translate(-91.01403494059238 482.4051134833472)"><path d="M125.2 -190.3C182.8 -157.8 264.2 -157.8 347.1 -117.2C430.1 -76.5 514.4 4.8 551.3 112.9C588.2 221.1 577.5 356.1 506.8 441.1C436.2 526 305.6 560.9 197.5 525.5C89.4 490 3.9 384.1 -105.7 354.4C-215.2 324.8 -348.7 371.3 -381.4 331.6C-414.2 291.9 -346.1 165.9 -304.9 78.4C-263.7 -9.1 -249.2 -58.1 -228.3 -104.5C-207.5 -150.8 -180.2 -194.4 -141.1 -235.4C-102 -276.4 -51 -314.7 -8.6 -301.3C33.8 -287.9 67.6 -222.8 125.2 -190.3" fill="#4FACF7"></path></g></svg>