<svg id="visual" viewBox="0 0 1800 744" width="1800" height="744" xmlns="http://www.w3.org/2000/svg" xmlns:xlink="http://www.w3.org/1999/xlink" version="1.1"><rect x="0" y="0" width="1800" height="744" fill="#FFFFFF"></rect><g transform="translate(1923.0374474308094 687.9554354140162)"><path d="M387.5 -540C464.2 -477.6 462.2 -313.6 463.8 -180.9C465.4 -48.2 470.5 53.2 434.7 134.5C399 215.9 322.5 277.2 243.3 372C164 466.7 82 594.9 -41 651.3C-164 707.7 -328 692.4 -459.9 614.8C-591.7 537.1 -691.5 397.1 -708.4 252.1C-725.3 107.1 -659.4 -42.9 -581.7 -160.3C-504 -277.7 -414.5 -362.5 -315.6 -417.7C-216.7 -472.9 -108.3 -498.5 23.5 -530.8C155.4 -563.2 310.7 -602.4 387.5 -540" fill="#4FACF7"></path></g></svg>