<svg id="visual" viewBox="0 0 900 600" width="900" height="600" xmlns="http://www.w3.org/2000/svg" xmlns:xlink="http://www.w3.org/1999/xlink" version="1.1"><rect x="0" y="0" width="900" height="600" fill="#FFFFFF"></rect><g transform="translate(899.6157314904451 654.7379454535808)"><path d="M279.5 -361.9C360.4 -326 422.7 -241.8 439 -152C455.2 -62.2 425.4 33.2 380.2 108.4C334.9 183.6 274.1 238.6 208.2 261C142.2 283.3 71.1 272.9 4.2 267.1C-62.7 261.3 -125.4 260.1 -190.9 237.6C-256.3 215.1 -324.6 171.4 -376.4 101.2C-428.3 31 -463.8 -65.6 -428.5 -128.4C-393.2 -191.2 -287.1 -220.2 -203.9 -255.3C-120.7 -290.5 -60.3 -331.7 19.5 -358.6C99.3 -385.4 198.7 -397.8 279.5 -361.9" fill="#4FACF7"></path></g></svg>