<svg id="visual" viewBox="0 0 1800 744" width="1800" height="744" xmlns="http://www.w3.org/2000/svg" xmlns:xlink="http://www.w3.org/1999/xlink" version="1.1"><g transform="translate(1845.1968427382487 740.8187470557409)"><path d="M335 -488.5C411.7 -405.3 436 -277.4 478.1 -153.9C520.2 -30.4 580.1 88.8 569.8 205.1C559.5 321.5 479 435 372.4 505.5C265.7 576 132.8 603.5 4 598C-124.8 592.4 -249.6 553.9 -367.5 487C-485.5 420.2 -596.5 325.1 -639.9 204.8C-683.2 84.6 -658.8 -60.8 -586.4 -161.8C-514 -262.8 -393.7 -319.5 -287.9 -393.3C-182.2 -467.1 -91.1 -558.1 19 -584.2C129.1 -610.4 258.2 -571.8 335 -488.5" fill="#4FACF7"></path></g></svg>