<svg id="visual" viewBox="0 0 1880 763" width="1880" height="763" xmlns="http://www.w3.org/2000/svg" xmlns:xlink="http://www.w3.org/1999/xlink" version="1.1"><rect x="0" y="0" width="1880" height="763" fill="#FFFFFF"></rect><defs><linearGradient id="grad1_0" x1="59.4%" y1="100%" x2="100%" y2="0%"><stop offset="0.7208387942332912%" stop-color="#ffffff" stop-opacity="1"></stop><stop offset="99.27916120576671%" stop-color="#ffffff" stop-opacity="1"></stop></linearGradient></defs><defs><linearGradient id="grad2_0" x1="0%" y1="100%" x2="40.6%" y2="0%"><stop offset="0.7208387942332912%" stop-color="#ffffff" stop-opacity="1"></stop><stop offset="99.27916120576671%" stop-color="#ffffff" stop-opacity="1"></stop></linearGradient></defs><g transform="translate(1880, 763)"><path d="M-343.3 0C-342.5 -37.4 -341.6 -74.8 -326.5 -106.1C-311.5 -137.4 -282.2 -162.5 -256.5 -186.3C-230.7 -210.1 -208.6 -232.5 -183.4 -252.4C-158.2 -272.3 -130 -289.6 -98.9 -304.3C-67.8 -319.1 -33.9 -331.2 0 -343.3L0 0Z" fill="#4FACF7"></path></g><g transform="translate(0, 0)"><path d="M343.3 0C340.8 36.4 338.2 72.8 326.5 106.1C314.8 139.4 294 169.6 271 196.9C248 224.2 222.9 248.5 194.6 267.8C166.2 287 134.6 301.2 101.7 312.9C68.7 324.6 34.4 334 0 343.3L0 0Z" fill="#4FACF7"></path></g></svg>